<svg id="logo" xmlns="http://www.w3.org/2000/svg" viewBox="0 0 24 24"><defs><style>.cls-1{fill:#2e3032;}.cls-2{fill:#4a4d50;}.cls-3{fill:#fff;}</style></defs><title>csharp</title><path id="Tracé_10198" data-name="Tracé 10198" class="cls-1" d="M12,5a7,7,0,1,1-7,7H5A7,7,0,0,1,12,5Z"/><path id="Tracé_10195" data-name="Tracé 10195" class="cls-2" d="M7.32,6.82a7,7,0,0,0,9.3,10.43,6,6,0,0,0,.56-.57Z"/><path id="Tracé_10196" data-name="Tracé 10196" class="cls-3" d="M11.65,14.52a3.2,3.2,0,0,1-1.52.32,2.45,2.45,0,0,1-1.88-.75,2.81,2.81,0,0,1-.71-2A2.9,2.9,0,0,1,8.34,10a2.68,2.68,0,0,1,2-.81,3.16,3.16,0,0,1,1.29.22v.68a2.7,2.7,0,0,0-1.3-.33,2,2,0,0,0-1.53.64,2.37,2.37,0,0,0-.59,1.69,2.28,2.28,0,0,0,.55,1.6,1.88,1.88,0,0,0,1.44.6,2.79,2.79,0,0,0,1.44-.37Z"/><path id="Tracé_10197" data-name="Tracé 10197" class="cls-3" d="M16.53,10.79l-.09.4h-1l-.24,1.15h1.07l-.1.41H15.12l-.34,1.53H14.3l.33-1.53h-1l-.32,1.53h-.47l.32-1.53h-1l.08-.41h1l.24-1.15H12.44l.09-.4h1.06l.32-1.54h.49l-.33,1.54h1l.33-1.54h.47l-.32,1.54Zm-1.57.4H14l-.25,1.15h1Z"/></svg>