<svg id="logo" xmlns="http://www.w3.org/2000/svg" viewBox="0 0 24 24"><defs><style>.cls-1{fill:#2e3032;}</style></defs><title>go</title><g id="Groupe_7546" data-name="Groupe 7546"><g id="Groupe_7247" data-name="Groupe 7247"><g id="Groupe_7246" data-name="Groupe 7246"><g id="Groupe_7245" data-name="Groupe 7245"><path id="Tracé_11502" data-name="Tracé 11502" class="cls-1" d="M3.65,10.56s0,0,0-.05l.2-.26a.16.16,0,0,1,.11-.05H7.36s0,0,0,.06l-.16.25a.21.21,0,0,1-.1.06Z"/></g></g></g><g id="Groupe_7250" data-name="Groupe 7250"><g id="Groupe_7249" data-name="Groupe 7249"><g id="Groupe_7248" data-name="Groupe 7248"><path id="Tracé_11503" data-name="Tracé 11503" class="cls-1" d="M2.2,11.44s-.05,0,0,0l.2-.26a.12.12,0,0,1,.11,0H6.86a0,0,0,0,1,0,0v0l-.08.23a.08.08,0,0,1-.08.06Z"/></g></g></g><g id="Groupe_7253" data-name="Groupe 7253"><g id="Groupe_7252" data-name="Groupe 7252"><g id="Groupe_7251" data-name="Groupe 7251"><path id="Tracé_11504" data-name="Tracé 11504" class="cls-1" d="M4.53,12.33s0,0,0-.06L4.63,12a.13.13,0,0,1,.1-.06H6.65s.06,0,.06.07l0,.23s0,.06-.07.07Z"/></g></g></g><g id="Groupe_7257" data-name="Groupe 7257"><g id="CXHf1q"><g id="Groupe_7256" data-name="Groupe 7256"><g id="Groupe_7254" data-name="Groupe 7254"><path id="Tracé_11505" data-name="Tracé 11505" class="cls-1" d="M14.51,10.38l-1.62.43c-.14,0-.15,0-.28-.1a1.22,1.22,0,0,0-.45-.36,1.66,1.66,0,0,0-1.74.14,2.06,2.06,0,0,0-1,1.83,1.51,1.51,0,0,0,1.3,1.51,1.76,1.76,0,0,0,1.63-.64,3.54,3.54,0,0,0,.26-.35H10.78c-.21,0-.25-.13-.19-.29s.36-.8.49-1.05a.25.25,0,0,1,.25-.15h3.5c0,.26,0,.52-.06.77A4.07,4.07,0,0,1,14,14a4,4,0,0,1-2.74,1.63A3.42,3.42,0,0,1,8.65,15a3,3,0,0,1-1.22-2.14,3.76,3.76,0,0,1,.82-2.81,4.26,4.26,0,0,1,2.69-1.67,3.37,3.37,0,0,1,2.55.47,3,3,0,0,1,1.11,1.36C14.66,10.31,14.62,10.36,14.51,10.38Z"/></g><g id="Groupe_7255" data-name="Groupe 7255"><path id="Tracé_11506" data-name="Tracé 11506" class="cls-1" d="M17.69,15.7a3.56,3.56,0,0,1-2.34-.84,3,3,0,0,1-1-1.86,3.62,3.62,0,0,1,.78-2.9,4,4,0,0,1,2.69-1.61A3.57,3.57,0,0,1,20.52,9a3,3,0,0,1,1.35,2.15,3.71,3.71,0,0,1-1.1,3.26,4.46,4.46,0,0,1-2.31,1.23C18.2,15.66,17.94,15.67,17.69,15.7ZM20,11.82a1.73,1.73,0,0,0,0-.32,1.58,1.58,0,0,0-1.81-1.31l-.15,0a2.1,2.1,0,0,0-1.68,1.67,1.59,1.59,0,0,0,.88,1.82,1.74,1.74,0,0,0,1.57-.06A2.1,2.1,0,0,0,20,11.82Z"/></g></g></g></g></g></svg>