<svg id="logo" xmlns="http://www.w3.org/2000/svg" viewBox="0 0 24 24"><defs><style>.cls-1{fill:#2e3032;fill-rule:evenodd;}</style></defs><title>java</title><path id="Tracé_10176" data-name="Tracé 10176" class="cls-1" d="M10.59,12.54s-.48.27.33.36a6.83,6.83,0,0,0,2.55-.11,4.79,4.79,0,0,0,.68.34c-2.41,1-5.46-.06-3.57-.59Z"/><path id="Tracé_10177" data-name="Tracé 10177" class="cls-1" d="M10.29,11.19s-.53.39.28.47a9.9,9.9,0,0,0,3.3-.16,1.36,1.36,0,0,0,.5.31c-2.92.86-6.17.07-4.08-.62Z"/><path id="Tracé_10178" data-name="Tracé 10178" class="cls-1" d="M12.78,8.9a.91.91,0,0,1-.16,1.3s1.51-.78.82-1.76S12.29,7.08,15,5.52c0,0-4.23,1.05-2.21,3.38Z"/><path id="Tracé_10179" data-name="Tracé 10179" class="cls-1" d="M16,13.54s.35.28-.38.51c-1.4.42-5.8.55-7,0-.44-.19.39-.45.65-.51a2,2,0,0,1,.42-.05c-.49-.34-3.16.68-1.36,1,4.93.8,9-.36,7.7-.93Z"/><path id="Tracé_10180" data-name="Tracé 10180" class="cls-1" d="M10.81,9.79s-2.24.53-.79.72a16.25,16.25,0,0,0,3,0c.93-.08,1.86-.24,1.86-.24a3.37,3.37,0,0,0-.56.3c-2.28.6-6.67.32-5.41-.29a4.11,4.11,0,0,1,1.94-.46Z"/><path id="Tracé_10181" data-name="Tracé 10181" class="cls-1" d="M14.83,12c2.32-1.2,1.25-2.35.5-2.2l-.26.07a.43.43,0,0,1,.2-.15c1.47-.52,2.61,1.53-.48,2.35l.05-.07Z"/><path id="Tracé_10182" data-name="Tracé 10182" class="cls-1" d="M13.44,3s1.28,1.28-1.22,3.25c-2,1.58-.45,2.48,0,3.51-1.17-1-2-2-1.45-2.84C11.62,5.65,14,5,13.44,3Z"/><path id="Tracé_10183" data-name="Tracé 10183" class="cls-1" d="M11,15.29c2.22.15,5.63-.08,5.71-1.13,0,0-.15.4-1.83.72A18,18,0,0,1,9.3,15s.28.24,1.74.33Z"/><path id="Tracé_10184" data-name="Tracé 10184" class="cls-1" d="M16.65,17.18h-.07v0h.19v0H16.7v.19h-.05v-.19Zm.36,0h0l-.06.18h0l-.07-.18h0v.18H16.8v-.23h.07l.06.16.06-.16h.07v.23h0v-.18Z"/><path id="Tracé_10185" data-name="Tracé 10185" class="cls-1" d="M10.68,19.31a1,1,0,0,1-.63.28.4.4,0,0,1-.44-.36v-.08c0-.29.16-.51.82-.51h.25Zm.57.65v-2c0-.51-.29-.85-1-.85a2.64,2.64,0,0,0-1.07.23l.08.36a2.41,2.41,0,0,1,.83-.17c.41,0,.59.17.59.51v.25h-.21c-1,0-1.44.39-1.44,1s.3.78.85.78a1.32,1.32,0,0,0,.87-.36l.05.3Z"/><path id="Tracé_10186" data-name="Tracé 10186" class="cls-1" d="M13.18,20h-.72l-.87-2.82h.63l.54,1.73.12.52a10.29,10.29,0,0,0,.56-2.25h.62A11.26,11.26,0,0,1,13.18,20Z"/><path id="Tracé_10187" data-name="Tracé 10187" class="cls-1" d="M16,19.31a.94.94,0,0,1-.63.28.4.4,0,0,1-.44-.36v-.08c0-.29.17-.51.83-.51H16v.67Zm.58.65v-2c0-.51-.3-.85-1-.85a2.64,2.64,0,0,0-1.07.23l.09.36a2.32,2.32,0,0,1,.83-.17c.4,0,.58.17.58.51v.25h-.2c-1,0-1.45.39-1.45,1s.3.78.85.78a1.36,1.36,0,0,0,.88-.36l0,.3Z"/><path id="Tracé_10188" data-name="Tracé 10188" class="cls-1" d="M8.4,20.44a1.51,1.51,0,0,1-.73.54l-.28-.33a1.26,1.26,0,0,0,.5-.47A1.9,1.9,0,0,0,8,19.36V16.13h.61v3.18a1.87,1.87,0,0,1-.21,1.13Z"/></svg>