<svg id="logo" xmlns="http://www.w3.org/2000/svg" viewBox="0 0 24 24"><defs><style>.cls-1{fill:#2e3032;}</style></defs><title>php</title><path id="Tracé_10232" data-name="Tracé 10232" class="cls-1" d="M8.3,10.5h-1l-.41,2.12h.94S9,12.65,9,11.24a.64.64,0,0,0-.54-.74Z"/><path id="Tracé_10233" data-name="Tracé 10233" class="cls-1" d="M16.86,10.5h-1l-.41,2.12h.93s1.14,0,1.2-1.38A.66.66,0,0,0,17,10.5Z"/><path id="Tracé_10234" data-name="Tracé 10234" class="cls-1" d="M12,6.94c-5.26,0-9.53,2.24-9.53,5S6.78,17,12,17s9.52-2.25,9.52-5S17.3,6.94,12,6.94ZM7.77,13.4h-1l-.29,1.33H5.39l1-5s1.39,0,2.3,0,1.81.63,1.39,2.09A2.22,2.22,0,0,1,7.77,13.4Zm4.89,0s.26-1.16.37-2c.05-.33.26-.9-.29-.9H11.61L11,13.41H10l1-5h1.1l-.28,1.34h1.14s1.5-.12,1.32,1.13-.51,2.57-.51,2.57Zm6-1.6a2.21,2.21,0,0,1-2.28,1.6h-1L15,14.73H14l1-5s1.39,0,2.3,0S19,10.34,18.62,11.8Z"/></svg>