<?xml version="1.0" encoding="utf-8"?>
<!-- Generator: Adobe Illustrator 25.1.0, SVG Export Plug-In . SVG Version: 6.00 Build 0)  -->
<svg version="1.1" id="logo" xmlns="http://www.w3.org/2000/svg" xmlns:xlink="http://www.w3.org/1999/xlink" x="0px" y="0px"
	 viewBox="0 0 24 24" style="enable-background:new 0 0 24 24;" xml:space="preserve">
<style type="text/css">
	.st0{fill:#FFFFFF;}
	.st1{fill:#2E3032;}
	.st2{fill-rule:evenodd;clip-rule:evenodd;fill:#FFFFFF;}
</style>
<path id="Tracé_10175" class="st0" d="M14.4,15.9c0.2,0.5,0.7,0.8,1.3,0.8c0.5,0,0.9-0.3,0.9-0.6s-0.4-0.6-1-0.9l-0.3-0.1
	c-0.9-0.4-1.6-0.9-1.6-2c0-1,0.8-1.7,1.7-1.7c0.1,0,0.1,0,0.2,0c0.8-0.1,1.5,0.3,1.9,1l-1,0.6c-0.1-0.3-0.5-0.6-0.8-0.6
	c-0.3,0-0.6,0.3-0.6,0.6c0,0,0,0,0,0v0.1c0,0.4,0.2,0.6,0.8,0.8l0.3,0.1c1.1,0.5,1.7,1,1.7,2s-0.9,1.8-2.1,1.8
	c-1,0.1-1.9-0.5-2.4-1.3L14.4,15.9z M9.8,16c0.2,0.4,0.4,0.7,0.8,0.7s0.7-0.2,0.7-0.8v-4.4h1.3v4.4c0.1,1-0.5,1.9-1.5,2
	c-0.1,0-0.3,0-0.4,0c-0.8,0.1-1.6-0.4-1.9-1.2L9.8,16z"/>
<g id="Histoire_Instagram_1">
	<g id="ts-logo-256" transform="translate(4 6)">
		<path id="Tracé_3" class="st1" d="M2.2-0.9h11.6c0.6,0,1.1,0.5,1.1,1.1v11.6c0,0.6-0.5,1.1-1.1,1.1H2.2c-0.6,0-1.1-0.5-1.1-1.1
			V0.2C1.1-0.4,1.6-0.9,2.2-0.9z"/>
		<path id="Tracé_1" class="st2" d="M9.2,9.9v1.5c0.3,0.1,0.6,0.2,0.9,0.3c0.3,0.1,0.7,0.1,1,0.1c0.3,0,0.7,0,1-0.1
			c0.3-0.1,0.6-0.2,0.8-0.3c0.2-0.2,0.4-0.4,0.6-0.6c0.1-0.3,0.2-0.6,0.2-0.9c0-0.2,0-0.5-0.1-0.7c-0.1-0.2-0.2-0.4-0.3-0.5
			c-0.2-0.2-0.3-0.3-0.5-0.4C12.5,8,12.3,7.8,12,7.7c-0.2-0.1-0.4-0.2-0.5-0.2c-0.1-0.1-0.3-0.1-0.4-0.2C11,7.2,10.9,7.1,10.8,7
			c-0.1-0.1-0.1-0.2-0.1-0.3c0-0.1,0-0.2,0.1-0.3c0.1-0.1,0.1-0.2,0.2-0.2c0.1-0.1,0.2-0.1,0.4-0.1c0.2,0,0.3-0.1,0.5,0
			c0.1,0,0.3,0,0.4,0c0.1,0,0.3,0,0.4,0.1c0.1,0,0.3,0.1,0.4,0.1c0.1,0.1,0.3,0.1,0.4,0.2V5.1C13.2,5,13,5,12.7,4.9
			c-0.3,0-0.6-0.1-0.9-0.1c-0.3,0-0.7,0-1,0.1C10.5,5,10.2,5.2,10,5.3C9.7,5.5,9.5,5.7,9.4,5.9C9.2,6.2,9.2,6.5,9.2,6.8
			c0,0.4,0.1,0.8,0.4,1.1c0.3,0.3,0.6,0.6,1.2,0.8c0.2,0.1,0.4,0.2,0.6,0.2c0.2,0.1,0.3,0.2,0.5,0.3c0.1,0.1,0.2,0.2,0.3,0.3
			c0.1,0.1,0.1,0.2,0.1,0.3c0,0.1,0,0.2-0.1,0.3c-0.1,0.1-0.1,0.2-0.2,0.2c-0.1,0.1-0.2,0.1-0.4,0.1c-0.2,0-0.3,0.1-0.5,0.1
			c-0.3,0-0.7-0.1-1-0.2C9.8,10.3,9.5,10.1,9.2,9.9L9.2,9.9z M6.7,6.2h1.9V5H3.3v1.2h1.9v5.5h1.5L6.7,6.2z"/>
	</g>
</g>
</svg>
